# xmcd
#
# Track frame offsets:
#	150
#	2425
#	4052
#	7987
#	11695
#	14245
#
# Disc length: 518 seconds
#
# Revision: 1
# Processed by: cddbd v1.5.1PL0 Copyright (c) Steve Scherf et al.
# Submitted via: CDex 1.50Beta5
#
DISCID=34020406
DTITLE=dm温泉 - dm温泉
DYEAR=1900
DGENRE=Other
TTITLE0=1
TTITLE1=2
TTITLE2=3
TTITLE3=4
TTITLE4=45
TTITLE5=56
EXTD=
EXTT0=
EXTT1=
EXTT2=
EXTT3=
EXTT4=
EXTT5=
PLAYORDER=
